<svg viewBox="0 0 820 340" xmlns="http://www.w3.org/2000/svg"
     font-family="-apple-system, 'Helvetica Neue', Arial, 'PingFang SC', sans-serif"
     fill="none" stroke="#2b3440" stroke-width="1.6">
  <defs>
    <marker id="ax" viewBox="0 0 10 10" refX="8" refY="5" markerWidth="7" markerHeight="7" orient="auto-start-reverse">
      <path d="M0,0 L10,5 L0,10 z" fill="#2b3440" stroke="none"/>
    </marker>
  </defs>
  <rect x="0" y="0" width="820" height="340" fill="#ffffff"/>

  <!-- ===== left: step response ===== -->
  <line x1="90" y1="292" x2="90" y2="52" marker-end="url(#ax)"/>
  <text x="72" y="52" font-size="17" font-style="italic" fill="#2b3440" stroke="none">θ</text>
  <line x1="90" y1="292" x2="368" y2="292" marker-end="url(#ax)"/>
  <text x="372" y="298" font-size="16" font-style="italic" fill="#2b3440" stroke="none">t</text>
  <line x1="90" y1="160" x2="352" y2="160" stroke-width="1" stroke-dasharray="4 3" stroke="#8a94a2"/>
  <text x="54" y="165" font-size="14" font-style="italic" fill="#2b3440" stroke="none">θ<tspan baseline-shift="-24%" font-size="10">t</tspan></text>
  <path d="M96,292 C100,292 132,120 154,116 C170,113 180,172 200,168 C222,164 238,155 264,160 C300,167 330,157 352,160"
        stroke="#2b6cb0" stroke-width="2.6"/>
  <text x="228" y="326" font-size="14" fill="#2b3440" stroke="none" text-anchor="middle">阶跃：一步到位，会超调、振荡</text>

  <!-- ===== right: smooth trajectory ===== -->
  <line x1="520" y1="292" x2="520" y2="52" marker-end="url(#ax)"/>
  <text x="502" y="52" font-size="17" font-style="italic" fill="#2b3440" stroke="none">θ</text>
  <line x1="520" y1="292" x2="798" y2="292" marker-end="url(#ax)"/>
  <text x="802" y="298" font-size="16" font-style="italic" fill="#2b3440" stroke="none">t</text>
  <line x1="520" y1="160" x2="784" y2="160" stroke-width="1" stroke-dasharray="4 3" stroke="#8a94a2"/>
  <text x="484" y="165" font-size="14" font-style="italic" fill="#2b3440" stroke="none">θ<tspan baseline-shift="-24%" font-size="10">t</tspan></text>
  <path d="M526,292 C556,291 586,262 640,206 C694,150 748,162 784,160"
        stroke="#2b6cb0" stroke-width="2.6"/>
  <text x="652" y="326" font-size="14" fill="#2b3440" stroke="none" text-anchor="middle">轨迹：加减速平滑过渡</text>
</svg>
